<?xml version='1.0' encoding='ascii'?>
<svg xmlns="http://www.w3.org/2000/svg" version="1.1" width="200" height="200">
    <g id="View Layer_lines" xmlns:inkscape="http://www.inkscape.org/namespaces/inkscape" inkscape:groupmode="lineset" inkscape:label="View Layer_lines">
        <g id="frame_0031" inkscape:groupmode="frame" inkscape:label="frame_0031">
            <g xmlns:inkscape="http://www.inkscape.org/namespaces/inkscape" inkscape:groupmode="layer" id="strokes" inkscape:label="strokes">
                <path fill="none" stroke-width="0.30000001192092896" stroke-linecap="round" stroke-opacity="1.0" stroke="rgb(255, 255, 255)" stroke-linejoin="round" d=" M 132.353, 150.069 131.381, 157.799 " />
                <path fill="none" stroke-width="0.30000001192092896" stroke-linecap="round" stroke-opacity="1.0" stroke="rgb(255, 255, 255)" stroke-linejoin="round" d=" M 116.528, 149.297 122.636, 152.793 131.381, 157.799 140.060, 162.767 140.850, 163.220 142.169, 155.334 143.575, 146.922 145.079, 137.930 146.690, 128.295 148.339, 118.431 148.420, 117.945 " />
                <path fill="none" stroke-width="0.30000001192092896" stroke-linecap="round" stroke-opacity="1.0" stroke="rgb(255, 255, 255)" stroke-linejoin="round" d=" M 142.169, 155.334 133.356, 150.607 132.353, 150.069 " />
                <path fill="none" stroke-width="0.30000001192092896" stroke-linecap="round" stroke-opacity="1.0" stroke="rgb(255, 255, 255)" stroke-linejoin="round" d=" M 144.846, 50.643 143.599, 60.565 143.001, 65.326 " />
                <path fill="none" stroke-width="0.30000001192092896" stroke-linecap="round" stroke-opacity="1.0" stroke="rgb(255, 255, 255)" stroke-linejoin="round" d=" M 143.001, 65.326 152.875, 66.907 156.847, 67.543 " />
                <path fill="none" stroke-width="0.30000001192092896" stroke-linecap="round" stroke-opacity="1.0" stroke="rgb(255, 255, 255)" stroke-linejoin="round" d=" M 148.420, 117.945 149.486, 111.570 150.284, 106.800 150.412, 106.029 151.109, 101.859 151.225, 101.168 151.944, 96.869 152.296, 94.762 152.584, 93.041 154.233, 83.178 154.477, 81.720 156.126, 71.857 156.847, 67.543 158.496, 57.680 159.433, 52.076 149.481, 51.098 144.846, 50.643 134.894, 49.665 131.827, 49.364 129.733, 49.158 124.934, 48.686 120.136, 48.215 119.648, 48.167 113.798, 47.592 109.579, 47.178 107.288, 46.953 100.000, 46.236 " />
                <path fill="none" stroke-width="0.30000001192092896" stroke-linecap="round" stroke-opacity="1.0" stroke="rgb(255, 255, 255)" stroke-linejoin="round" d=" M 130.585, 63.339 140.459, 64.919 143.001, 65.326 141.754, 75.248 141.302, 78.849 " />
                <path fill="none" stroke-width="0.30000001192092896" stroke-linecap="round" stroke-opacity="1.0" stroke="rgb(255, 255, 255)" stroke-linejoin="round" d=" M 141.302, 78.849 151.073, 80.978 154.477, 81.720 " />
                <path fill="none" stroke-width="0.30000001192092896" stroke-linecap="round" stroke-opacity="1.0" stroke="rgb(255, 255, 255)" stroke-linejoin="round" d=" M 129.437, 76.264 139.207, 78.393 141.302, 78.849 140.055, 88.771 139.939, 89.692 139.732, 91.344 " />
                <path fill="none" stroke-width="0.30000001192092896" stroke-linecap="round" stroke-opacity="1.0" stroke="rgb(255, 255, 255)" stroke-linejoin="round" d=" M 139.732, 91.344 149.381, 93.969 152.296, 94.762 " />
                <path fill="none" stroke-width="0.30000001192092896" stroke-linecap="round" stroke-opacity="1.0" stroke="rgb(255, 255, 255)" stroke-linejoin="round" d=" M 128.371, 88.254 138.021, 90.878 139.732, 91.344 138.485, 101.266 138.277, 102.924 " />
                <path fill="none" stroke-width="0.30000001192092896" stroke-linecap="round" stroke-opacity="1.0" stroke="rgb(255, 255, 255)" stroke-linejoin="round" d=" M 138.277, 102.924 147.793, 105.996 150.284, 106.800 " />
                <path fill="none" stroke-width="0.30000001192092896" stroke-linecap="round" stroke-opacity="1.0" stroke="rgb(255, 255, 255)" stroke-linejoin="round" d=" M 127.380, 99.406 136.897, 102.478 138.277, 102.924 137.030, 112.845 136.925, 113.685 " />
                <path fill="none" stroke-width="0.30000001192092896" stroke-linecap="round" stroke-opacity="1.0" stroke="rgb(255, 255, 255)" stroke-linejoin="round" d=" M 136.925, 113.685 146.301, 117.160 148.420, 117.945 " />
                <path fill="none" stroke-width="0.30000001192092896" stroke-linecap="round" stroke-opacity="1.0" stroke="rgb(255, 255, 255)" stroke-linejoin="round" d=" M 134.488, 133.077 143.579, 137.243 145.079, 137.930 " />
                <path fill="none" stroke-width="0.30000001192092896" stroke-linecap="round" stroke-opacity="1.0" stroke="rgb(255, 255, 255)" stroke-linejoin="round" d=" M 134.488, 133.077 133.386, 141.844 " />
                <path fill="none" stroke-width="0.30000001192092896" stroke-linecap="round" stroke-opacity="1.0" stroke="rgb(255, 255, 255)" stroke-linejoin="round" d=" M 133.386, 141.844 142.337, 146.305 143.575, 146.922 " />
                <path fill="none" stroke-width="0.30000001192092896" stroke-linecap="round" stroke-opacity="1.0" stroke="rgb(255, 255, 255)" stroke-linejoin="round" d=" M 127.230, 138.776 133.386, 141.844 132.353, 150.069 123.540, 145.342 123.310, 145.218 " />
                <path fill="none" stroke-width="0.30000001192092896" stroke-linecap="round" stroke-opacity="1.0" stroke="rgb(255, 255, 255)" stroke-linejoin="round" d=" M 123.310, 145.218 123.562, 142.382 " />
                <path fill="none" stroke-width="0.30000001192092896" stroke-linecap="round" stroke-opacity="1.0" stroke="rgb(255, 255, 255)" stroke-linejoin="round" d=" M 134.694, 131.439 134.488, 133.077 133.491, 132.621 " />
                <path fill="none" stroke-width="0.30000001192092896" stroke-linecap="round" stroke-opacity="1.0" stroke="rgb(255, 255, 255)" stroke-linejoin="round" d=" M 108.095, 103.000 100.234, 100.087 " />
                <path fill="none" stroke-width="0.30000001192092896" stroke-linecap="round" stroke-opacity="1.0" stroke="rgb(255, 255, 255)" stroke-linejoin="round" d=" M 116.883, 106.257 108.095, 103.000 " />
                <path fill="none" stroke-width="0.30000001192092896" stroke-linecap="round" stroke-opacity="1.0" stroke="rgb(255, 255, 255)" stroke-linejoin="round" d=" M 126.456, 109.805 124.753, 109.174 116.883, 106.257 " />
                <path fill="none" stroke-width="0.30000001192092896" stroke-linecap="round" stroke-opacity="1.0" stroke="rgb(255, 255, 255)" stroke-linejoin="round" d=" M 130.825, 118.770 136.925, 113.685 127.548, 110.210 126.456, 109.805 " />
                <path fill="none" stroke-width="0.30000001192092896" stroke-linecap="round" stroke-opacity="1.0" stroke="rgb(255, 255, 255)" stroke-linejoin="round" d=" M 101.315, 106.883 108.095, 103.000 108.354, 93.264 " />
                <path fill="none" stroke-width="0.30000001192092896" stroke-linecap="round" stroke-opacity="1.0" stroke="rgb(255, 255, 255)" stroke-linejoin="round" d=" M 108.354, 93.264 100.000, 90.567 " />
                <path fill="none" stroke-width="0.30000001192092896" stroke-linecap="round" stroke-opacity="1.0" stroke="rgb(255, 255, 255)" stroke-linejoin="round" d=" M 110.266, 110.488 116.883, 106.257 117.447, 96.199 " />
                <path fill="none" stroke-width="0.30000001192092896" stroke-linecap="round" stroke-opacity="1.0" stroke="rgb(255, 255, 255)" stroke-linejoin="round" d=" M 117.447, 96.199 108.354, 93.264 108.620, 83.267 108.630, 82.884 " />
                <path fill="none" stroke-width="0.30000001192092896" stroke-linecap="round" stroke-opacity="1.0" stroke="rgb(255, 255, 255)" stroke-linejoin="round" d=" M 120.060, 114.434 124.589, 111.156 126.456, 109.805 127.341, 99.844 127.380, 99.406 " />
                <path fill="none" stroke-width="0.30000001192092896" stroke-linecap="round" stroke-opacity="1.0" stroke="rgb(255, 255, 255)" stroke-linejoin="round" d=" M 128.371, 88.254 127.486, 98.214 127.380, 99.406 125.611, 98.835 117.447, 96.199 118.006, 86.215 118.049, 85.446 " />
                <path fill="none" stroke-width="0.30000001192092896" stroke-linecap="round" stroke-opacity="1.0" stroke="rgb(255, 255, 255)" stroke-linejoin="round" d=" M 100.000, 90.567 100.000, 80.536 " />
                <path fill="none" stroke-width="0.30000001192092896" stroke-linecap="round" stroke-opacity="1.0" stroke="rgb(255, 255, 255)" stroke-linejoin="round" d=" M 108.630, 82.884 100.000, 80.536 " />
                <path fill="none" stroke-width="0.30000001192092896" stroke-linecap="round" stroke-opacity="1.0" stroke="rgb(255, 255, 255)" stroke-linejoin="round" d=" M 118.049, 85.446 108.630, 82.884 108.669, 81.411 108.925, 71.795 " />
                <path fill="none" stroke-width="0.30000001192092896" stroke-linecap="round" stroke-opacity="1.0" stroke="rgb(255, 255, 255)" stroke-linejoin="round" d=" M 129.437, 76.264 128.552, 86.225 128.512, 86.666 128.371, 88.254 126.531, 87.753 118.049, 85.446 118.135, 83.918 118.695, 73.923 " />
                <path fill="none" stroke-width="0.30000001192092896" stroke-linecap="round" stroke-opacity="1.0" stroke="rgb(255, 255, 255)" stroke-linejoin="round" d=" M 92.645, 83.335 100.000, 80.536 100.000, 79.115 100.000, 69.850 " />
                <path fill="none" stroke-width="0.30000001192092896" stroke-linecap="round" stroke-opacity="1.0" stroke="rgb(255, 255, 255)" stroke-linejoin="round" d=" M 108.925, 71.795 100.000, 69.850 " />
                <path fill="none" stroke-width="0.30000001192092896" stroke-linecap="round" stroke-opacity="1.0" stroke="rgb(255, 255, 255)" stroke-linejoin="round" d=" M 118.695, 73.923 108.925, 71.795 109.191, 61.798 109.241, 59.921 " />
                <path fill="none" stroke-width="0.30000001192092896" stroke-linecap="round" stroke-opacity="1.0" stroke="rgb(255, 255, 255)" stroke-linejoin="round" d=" M 130.585, 63.339 129.700, 73.299 129.437, 76.264 127.518, 75.846 118.695, 73.923 119.255, 63.939 119.389, 61.546 " />
                <path fill="none" stroke-width="0.30000001192092896" stroke-linecap="round" stroke-opacity="1.0" stroke="rgb(255, 255, 255)" stroke-linejoin="round" d=" M 92.392, 72.169 100.000, 69.850 100.000, 59.850 100.000, 58.442 " />
                <path fill="none" stroke-width="0.30000001192092896" stroke-linecap="round" stroke-opacity="1.0" stroke="rgb(255, 255, 255)" stroke-linejoin="round" d=" M 109.241, 59.921 100.000, 58.442 " />
                <path fill="none" stroke-width="0.30000001192092896" stroke-linecap="round" stroke-opacity="1.0" stroke="rgb(255, 255, 255)" stroke-linejoin="round" d=" M 119.389, 61.546 109.514, 59.965 109.241, 59.921 109.506, 49.925 109.579, 47.178 " />
                <path fill="none" stroke-width="0.30000001192092896" stroke-linecap="round" stroke-opacity="1.0" stroke="rgb(255, 255, 255)" stroke-linejoin="round" d=" M 131.827, 49.364 130.942, 59.324 130.585, 63.339 128.583, 63.018 119.389, 61.546 119.948, 51.562 120.136, 48.215 " />
                <path fill="none" stroke-width="0.30000001192092896" stroke-linecap="round" stroke-opacity="1.0" stroke="rgb(255, 255, 255)" stroke-linejoin="round" d=" M 100.000, 46.236 91.268, 45.378 83.276, 44.593 75.934, 43.872 69.165, 43.207 62.904, 42.591 63.781, 51.215 " />
                <path fill="none" stroke-width="0.30000001192092896" stroke-linecap="round" stroke-opacity="1.0" stroke="rgb(255, 255, 255)" stroke-linejoin="round" d=" M 92.120, 60.207 100.000, 58.442 100.000, 48.442 100.000, 46.236 " />
                <path fill="none" stroke-width="0.30000001192092896" stroke-linecap="round" stroke-opacity="1.0" stroke="rgb(255, 255, 255)" stroke-linejoin="round" d=" M 122.636, 152.793 123.310, 145.218 121.606, 144.305 " />
                <path fill="none" stroke-width="0.30000001192092896" stroke-linecap="round" stroke-opacity="1.0" stroke="rgb(255, 255, 255)" stroke-linejoin="round" d=" M 107.328, 138.358 103.294, 141.721 97.100, 146.885 " />
                <path fill="none" stroke-width="0.30000001192092896" stroke-linecap="round" stroke-opacity="1.0" stroke="rgb(255, 255, 255)" stroke-linejoin="round" d=" M 57.142, 122.222 65.509, 127.387 66.809, 128.189 69.105, 129.606 74.834, 133.142 75.045, 133.272 78.914, 135.661 82.146, 137.655 85.291, 139.596 87.104, 140.715 88.331, 141.472 93.767, 144.827 97.100, 146.885 105.610, 152.137 110.542, 155.181 116.528, 149.297 120.407, 145.483 121.606, 144.305 123.562, 142.382 127.230, 138.776 128.887, 137.148 133.491, 132.621 134.694, 131.439 136.253, 129.906 140.507, 125.725 142.711, 123.558 148.420, 117.945 153.503, 112.949 158.057, 108.472 162.161, 104.437 165.879, 100.783 169.262, 97.457 159.595, 94.897 159.493, 94.870 152.584, 93.041 " />
                <path fill="none" stroke-width="0.30000001192092896" stroke-linecap="round" stroke-opacity="1.0" stroke="rgb(255, 255, 255)" stroke-linejoin="round" d=" M 120.407, 145.483 111.626, 140.699 107.328, 138.358 " />
                <path fill="none" stroke-width="0.30000001192092896" stroke-linecap="round" stroke-opacity="1.0" stroke="rgb(255, 255, 255)" stroke-linejoin="round" d=" M 159.493, 94.870 155.797, 97.952 " />
                <path fill="none" stroke-width="0.30000001192092896" stroke-linecap="round" stroke-opacity="1.0" stroke="rgb(255, 255, 255)" stroke-linejoin="round" d=" M 155.797, 97.952 165.425, 100.655 165.879, 100.783 " />
                <path fill="none" stroke-width="0.30000001192092896" stroke-linecap="round" stroke-opacity="1.0" stroke="rgb(255, 255, 255)" stroke-linejoin="round" d=" M 151.944, 96.869 155.797, 97.952 151.751, 101.325 " />
                <path fill="none" stroke-width="0.30000001192092896" stroke-linecap="round" stroke-opacity="1.0" stroke="rgb(255, 255, 255)" stroke-linejoin="round" d=" M 151.751, 101.325 161.332, 104.189 162.161, 104.437 " />
                <path fill="none" stroke-width="0.30000001192092896" stroke-linecap="round" stroke-opacity="1.0" stroke="rgb(255, 255, 255)" stroke-linejoin="round" d=" M 151.225, 101.168 151.751, 101.325 151.109, 101.859 " />
                <path fill="none" stroke-width="0.30000001192092896" stroke-linecap="round" stroke-opacity="1.0" stroke="rgb(255, 255, 255)" stroke-linejoin="round" d=" M 130.825, 118.770 140.101, 122.506 142.711, 123.558 " />
                <path fill="none" stroke-width="0.30000001192092896" stroke-linecap="round" stroke-opacity="1.0" stroke="rgb(255, 255, 255)" stroke-linejoin="round" d=" M 120.060, 114.434 124.179, 116.093 130.825, 118.770 123.967, 124.487 " />
                <path fill="none" stroke-width="0.30000001192092896" stroke-linecap="round" stroke-opacity="1.0" stroke="rgb(255, 255, 255)" stroke-linejoin="round" d=" M 123.967, 124.487 133.116, 128.523 136.253, 129.906 " />
                <path fill="none" stroke-width="0.30000001192092896" stroke-linecap="round" stroke-opacity="1.0" stroke="rgb(255, 255, 255)" stroke-linejoin="round" d=" M 117.138, 121.475 120.871, 123.122 123.967, 124.487 116.589, 130.638 " />
                <path fill="none" stroke-width="0.30000001192092896" stroke-linecap="round" stroke-opacity="1.0" stroke="rgb(255, 255, 255)" stroke-linejoin="round" d=" M 52.775, 93.151 44.564, 96.043 35.502, 99.233 26.070, 102.555 25.564, 102.733 30.803, 105.966 36.509, 109.488 42.746, 113.337 49.592, 117.563 56.667, 121.929 " />
                <path fill="none" stroke-width="0.30000001192092896" stroke-linecap="round" stroke-opacity="1.0" stroke="rgb(255, 255, 255)" stroke-linejoin="round" d=" M 35.502, 99.233 40.893, 102.170 " />
                <path fill="none" stroke-width="0.30000001192092896" stroke-linecap="round" stroke-opacity="1.0" stroke="rgb(255, 255, 255)" stroke-linejoin="round" d=" M 40.893, 102.170 50.059, 98.721 " />
                <path fill="none" stroke-width="0.30000001192092896" stroke-linecap="round" stroke-opacity="1.0" stroke="rgb(255, 255, 255)" stroke-linejoin="round" d=" M 50.059, 98.721 44.564, 96.043 " />
                <path fill="none" stroke-width="0.30000001192092896" stroke-linecap="round" stroke-opacity="1.0" stroke="rgb(255, 255, 255)" stroke-linejoin="round" d=" M 30.803, 105.966 40.163, 102.445 40.893, 102.170 46.740, 105.355 " />
                <path fill="none" stroke-width="0.30000001192092896" stroke-linecap="round" stroke-opacity="1.0" stroke="rgb(255, 255, 255)" stroke-linejoin="round" d=" M 46.740, 105.355 54.158, 102.358 " />
                <path fill="none" stroke-width="0.30000001192092896" stroke-linecap="round" stroke-opacity="1.0" stroke="rgb(255, 255, 255)" stroke-linejoin="round" d=" M 36.509, 109.488 45.781, 105.742 46.740, 105.355 53.103, 108.821 " />
                <path fill="none" stroke-width="0.30000001192092896" stroke-linecap="round" stroke-opacity="1.0" stroke="rgb(255, 255, 255)" stroke-linejoin="round" d=" M 53.103, 108.821 55.004, 107.992 " />
                <path fill="none" stroke-width="0.30000001192092896" stroke-linecap="round" stroke-opacity="1.0" stroke="rgb(255, 255, 255)" stroke-linejoin="round" d=" M 42.746, 113.337 51.912, 109.340 53.103, 108.821 55.309, 110.023 " />
                <path fill="none" stroke-width="0.30000001192092896" stroke-linecap="round" stroke-opacity="1.0" stroke="rgb(255, 255, 255)" stroke-linejoin="round" d=" M 67.677, 116.760 70.305, 115.397 77.071, 111.889 77.311, 112.006 " />
                <path fill="none" stroke-width="0.30000001192092896" stroke-linecap="round" stroke-opacity="1.0" stroke="rgb(255, 255, 255)" stroke-linejoin="round" d=" M 67.677, 116.760 70.605, 118.355 76.077, 121.335 " />
                <path fill="none" stroke-width="0.30000001192092896" stroke-linecap="round" stroke-opacity="1.0" stroke="rgb(255, 255, 255)" stroke-linejoin="round" d=" M 76.077, 121.335 84.755, 116.366 85.445, 115.971 " />
                <path fill="none" stroke-width="0.30000001192092896" stroke-linecap="round" stroke-opacity="1.0" stroke="rgb(255, 255, 255)" stroke-linejoin="round" d=" M 85.445, 115.971 77.311, 112.006 " />
                <path fill="none" stroke-width="0.30000001192092896" stroke-linecap="round" stroke-opacity="1.0" stroke="rgb(255, 255, 255)" stroke-linejoin="round" d=" M 65.509, 127.387 71.879, 123.739 76.077, 121.335 84.858, 126.119 85.377, 126.401 " />
                <path fill="none" stroke-width="0.30000001192092896" stroke-linecap="round" stroke-opacity="1.0" stroke="rgb(255, 255, 255)" stroke-linejoin="round" d=" M 85.377, 126.401 93.802, 121.014 94.662, 120.464 " />
                <path fill="none" stroke-width="0.30000001192092896" stroke-linecap="round" stroke-opacity="1.0" stroke="rgb(255, 255, 255)" stroke-linejoin="round" d=" M 74.834, 133.142 81.198, 129.073 85.377, 126.401 94.158, 131.185 95.731, 132.041 " />
                <path fill="none" stroke-width="0.30000001192092896" stroke-linecap="round" stroke-opacity="1.0" stroke="rgb(255, 255, 255)" stroke-linejoin="round" d=" M 95.731, 132.041 103.832, 126.178 104.859, 125.435 " />
                <path fill="none" stroke-width="0.30000001192092896" stroke-linecap="round" stroke-opacity="1.0" stroke="rgb(255, 255, 255)" stroke-linejoin="round" d=" M 104.859, 125.435 95.870, 121.053 94.662, 120.464 94.662, 120.464 " />
                <path fill="none" stroke-width="0.30000001192092896" stroke-linecap="round" stroke-opacity="1.0" stroke="rgb(255, 255, 255)" stroke-linejoin="round" d=" M 85.291, 139.596 91.602, 135.029 95.731, 132.041 104.065, 136.581 107.328, 138.358 115.009, 131.955 115.950, 131.170 " />
                <path fill="none" stroke-width="0.30000001192092896" stroke-linecap="round" stroke-opacity="1.0" stroke="rgb(255, 255, 255)" stroke-linejoin="round" d=" M 53.892, 100.590 50.059, 98.721 53.421, 97.456 " />
                <path fill="none" stroke-width="0.30000001192092896" stroke-linecap="round" stroke-opacity="1.0" stroke="rgb(255, 255, 255)" stroke-linejoin="round" d=" M 93.806, 111.183 85.738, 107.624 " />
                <path fill="none" stroke-width="0.30000001192092896" stroke-linecap="round" stroke-opacity="1.0" stroke="rgb(255, 255, 255)" stroke-linejoin="round" d=" M 102.903, 115.196 93.806, 111.183 " />
                <path fill="none" stroke-width="0.30000001192092896" stroke-linecap="round" stroke-opacity="1.0" stroke="rgb(255, 255, 255)" stroke-linejoin="round" d=" M 115.841, 130.788 113.017, 129.411 104.859, 125.435 104.859, 125.435 " />
                <path fill="none" stroke-width="0.30000001192092896" stroke-linecap="round" stroke-opacity="1.0" stroke="rgb(255, 255, 255)" stroke-linejoin="round" d=" M 112.909, 119.609 103.760, 115.573 102.903, 115.196 " />
                <path fill="none" stroke-width="0.30000001192092896" stroke-linecap="round" stroke-opacity="1.0" stroke="rgb(255, 255, 255)" stroke-linejoin="round" d=" M 86.032, 115.635 93.806, 111.183 101.315, 106.883 " />
                <path fill="none" stroke-width="0.30000001192092896" stroke-linecap="round" stroke-opacity="1.0" stroke="rgb(255, 255, 255)" stroke-linejoin="round" d=" M 110.266, 110.488 101.315, 106.883 93.340, 103.671 " />
                <path fill="none" stroke-width="0.30000001192092896" stroke-linecap="round" stroke-opacity="1.0" stroke="rgb(255, 255, 255)" stroke-linejoin="round" d=" M 95.242, 120.093 102.903, 115.196 110.266, 110.488 119.541, 114.225 120.060, 114.434 117.429, 116.338 " />
                <path fill="none" stroke-width="0.30000001192092896" stroke-linecap="round" stroke-opacity="1.0" stroke="rgb(255, 255, 255)" stroke-linejoin="round" d=" M 112.909, 119.609 114.366, 118.555 " />
                <path fill="none" stroke-width="0.30000001192092896" stroke-linecap="round" stroke-opacity="1.0" stroke="rgb(255, 255, 255)" stroke-linejoin="round" d=" M 49.592, 117.563 55.987, 114.533 " />
                <path fill="none" stroke-width="0.30000001192092896" stroke-linecap="round" stroke-opacity="1.0" stroke="rgb(255, 255, 255)" stroke-linejoin="round" d=" M 57.142, 122.222 66.019, 117.619 67.677, 116.760 66.572, 106.821 66.450, 105.720 " />
                <path fill="none" stroke-width="0.30000001192092896" stroke-linecap="round" stroke-opacity="1.0" stroke="rgb(255, 255, 255)" stroke-linejoin="round" d=" M 125.346, 42.752 124.934, 48.686 " />
                <path fill="none" stroke-width="0.30000001192092896" stroke-linecap="round" stroke-opacity="1.0" stroke="rgb(255, 255, 255)" stroke-linejoin="round" d=" M 129.733, 49.158 130.321, 42.068 125.346, 42.752 119.903, 43.500 113.924, 44.322 107.323, 45.230 100.000, 46.236 91.829, 47.360 91.318, 47.430 83.457, 48.511 82.653, 48.621 76.306, 49.494 72.275, 50.048 69.773, 50.392 63.781, 51.215 60.442, 51.674 50.535, 53.036 46.826, 53.546 48.311, 63.435 49.268, 69.805 50.753, 79.694 51.496, 84.635 52.775, 93.151 53.421, 97.456 53.536, 98.218 53.892, 100.590 54.158, 102.358 55.004, 107.992 55.309, 110.023 55.412, 110.705 55.987, 114.533 57.142, 122.222 " />
                <path fill="none" stroke-width="0.30000001192092896" stroke-linecap="round" stroke-opacity="1.0" stroke="rgb(255, 255, 255)" stroke-linejoin="round" d=" M 56.983, 122.124 57.142, 122.222 58.627, 132.111 58.742, 132.879 60.228, 142.769 61.610, 151.971 62.900, 160.555 64.105, 168.582 71.911, 162.331 72.675, 161.719 80.452, 155.490 87.543, 149.811 93.767, 144.827 " />
                <path fill="none" stroke-width="0.30000001192092896" stroke-linecap="round" stroke-opacity="1.0" stroke="rgb(255, 255, 255)" stroke-linejoin="round" d=" M 62.900, 160.555 70.898, 154.554 71.803, 153.875 " />
                <path fill="none" stroke-width="0.30000001192092896" stroke-linecap="round" stroke-opacity="1.0" stroke="rgb(255, 255, 255)" stroke-linejoin="round" d=" M 71.803, 153.875 70.873, 145.514 " />
                <path fill="none" stroke-width="0.30000001192092896" stroke-linecap="round" stroke-opacity="1.0" stroke="rgb(255, 255, 255)" stroke-linejoin="round" d=" M 70.873, 145.514 62.670, 151.233 61.610, 151.971 " />
                <path fill="none" stroke-width="0.30000001192092896" stroke-linecap="round" stroke-opacity="1.0" stroke="rgb(255, 255, 255)" stroke-linejoin="round" d=" M 72.675, 161.719 71.803, 153.875 79.858, 147.830 " />
                <path fill="none" stroke-width="0.30000001192092896" stroke-linecap="round" stroke-opacity="1.0" stroke="rgb(255, 255, 255)" stroke-linejoin="round" d=" M 79.858, 147.830 79.227, 139.690 " />
                <path fill="none" stroke-width="0.30000001192092896" stroke-linecap="round" stroke-opacity="1.0" stroke="rgb(255, 255, 255)" stroke-linejoin="round" d=" M 79.227, 139.690 71.024, 145.409 70.873, 145.514 69.880, 136.582 " />
                <path fill="none" stroke-width="0.30000001192092896" stroke-linecap="round" stroke-opacity="1.0" stroke="rgb(255, 255, 255)" stroke-linejoin="round" d=" M 80.452, 155.490 79.858, 147.830 87.182, 142.334 " />
                <path fill="none" stroke-width="0.30000001192092896" stroke-linecap="round" stroke-opacity="1.0" stroke="rgb(255, 255, 255)" stroke-linejoin="round" d=" M 87.182, 142.334 87.104, 140.715 " />
                <path fill="none" stroke-width="0.30000001192092896" stroke-linecap="round" stroke-opacity="1.0" stroke="rgb(255, 255, 255)" stroke-linejoin="round" d=" M 87.543, 149.811 87.182, 142.334 88.331, 141.472 " />
                <path fill="none" stroke-width="0.30000001192092896" stroke-linecap="round" stroke-opacity="1.0" stroke="rgb(255, 255, 255)" stroke-linejoin="round" d=" M 69.880, 136.582 61.461, 141.979 60.228, 142.769 " />
                <path fill="none" stroke-width="0.30000001192092896" stroke-linecap="round" stroke-opacity="1.0" stroke="rgb(255, 255, 255)" stroke-linejoin="round" d=" M 82.146, 137.655 79.227, 139.690 78.914, 135.661 " />
                <path fill="none" stroke-width="0.30000001192092896" stroke-linecap="round" stroke-opacity="1.0" stroke="rgb(255, 255, 255)" stroke-linejoin="round" d=" M 75.045, 133.272 69.880, 136.582 69.105, 129.606 " />
                <path fill="none" stroke-width="0.30000001192092896" stroke-linecap="round" stroke-opacity="1.0" stroke="rgb(255, 255, 255)" stroke-linejoin="round" d=" M 66.450, 105.720 57.336, 109.836 55.412, 110.705 " />
                <path fill="none" stroke-width="0.30000001192092896" stroke-linecap="round" stroke-opacity="1.0" stroke="rgb(255, 255, 255)" stroke-linejoin="round" d=" M 76.249, 101.294 69.195, 104.480 66.450, 105.720 65.345, 95.781 65.126, 93.808 " />
                <path fill="none" stroke-width="0.30000001192092896" stroke-linecap="round" stroke-opacity="1.0" stroke="rgb(255, 255, 255)" stroke-linejoin="round" d=" M 85.007, 97.338 76.249, 101.294 " />
                <path fill="none" stroke-width="0.30000001192092896" stroke-linecap="round" stroke-opacity="1.0" stroke="rgb(255, 255, 255)" stroke-linejoin="round" d=" M 92.882, 93.781 85.007, 97.338 " />
                <path fill="none" stroke-width="0.30000001192092896" stroke-linecap="round" stroke-opacity="1.0" stroke="rgb(255, 255, 255)" stroke-linejoin="round" d=" M 100.000, 99.657 100.000, 90.567 92.882, 93.781 " />
                <path fill="none" stroke-width="0.30000001192092896" stroke-linecap="round" stroke-opacity="1.0" stroke="rgb(255, 255, 255)" stroke-linejoin="round" d=" M 65.126, 93.808 55.780, 97.365 53.536, 98.218 " />
                <path fill="none" stroke-width="0.30000001192092896" stroke-linecap="round" stroke-opacity="1.0" stroke="rgb(255, 255, 255)" stroke-linejoin="round" d=" M 77.023, 111.274 76.249, 101.294 75.476, 91.324 75.366, 89.911 " />
                <path fill="none" stroke-width="0.30000001192092896" stroke-linecap="round" stroke-opacity="1.0" stroke="rgb(255, 255, 255)" stroke-linejoin="round" d=" M 75.366, 89.911 67.999, 92.714 65.126, 93.808 64.590, 88.991 63.693, 80.917 " />
                <path fill="none" stroke-width="0.30000001192092896" stroke-linecap="round" stroke-opacity="1.0" stroke="rgb(255, 255, 255)" stroke-linejoin="round" d=" M 85.482, 107.149 85.007, 97.338 84.525, 87.350 84.481, 86.442 " />
                <path fill="none" stroke-width="0.30000001192092896" stroke-linecap="round" stroke-opacity="1.0" stroke="rgb(255, 255, 255)" stroke-linejoin="round" d=" M 84.481, 86.442 75.366, 89.911 75.011, 85.322 74.415, 77.649 " />
                <path fill="none" stroke-width="0.30000001192092896" stroke-linecap="round" stroke-opacity="1.0" stroke="rgb(255, 255, 255)" stroke-linejoin="round" d=" M 93.096, 103.220 92.882, 93.781 92.655, 83.784 92.645, 83.335 " />
                <path fill="none" stroke-width="0.30000001192092896" stroke-linecap="round" stroke-opacity="1.0" stroke="rgb(255, 255, 255)" stroke-linejoin="round" d=" M 92.392, 72.169 92.550, 79.146 92.645, 83.335 84.481, 86.442 84.269, 82.062 83.916, 74.753 " />
                <path fill="none" stroke-width="0.30000001192092896" stroke-linecap="round" stroke-opacity="1.0" stroke="rgb(255, 255, 255)" stroke-linejoin="round" d=" M 63.693, 80.917 54.127, 83.833 51.496, 84.635 " />
                <path fill="none" stroke-width="0.30000001192092896" stroke-linecap="round" stroke-opacity="1.0" stroke="rgb(255, 255, 255)" stroke-linejoin="round" d=" M 74.415, 77.649 66.707, 79.999 63.693, 80.917 62.588, 70.979 62.137, 66.922 " />
                <path fill="none" stroke-width="0.30000001192092896" stroke-linecap="round" stroke-opacity="1.0" stroke="rgb(255, 255, 255)" stroke-linejoin="round" d=" M 83.916, 74.753 74.415, 77.649 73.642, 67.679 73.388, 64.402 " />
                <path fill="none" stroke-width="0.30000001192092896" stroke-linecap="round" stroke-opacity="1.0" stroke="rgb(255, 255, 255)" stroke-linejoin="round" d=" M 92.120, 60.207 92.347, 70.204 92.392, 72.169 83.916, 74.753 83.433, 64.765 83.308, 62.181 " />
                <path fill="none" stroke-width="0.30000001192092896" stroke-linecap="round" stroke-opacity="1.0" stroke="rgb(255, 255, 255)" stroke-linejoin="round" d=" M 62.137, 66.922 52.379, 69.108 49.268, 69.805 " />
                <path fill="none" stroke-width="0.30000001192092896" stroke-linecap="round" stroke-opacity="1.0" stroke="rgb(255, 255, 255)" stroke-linejoin="round" d=" M 73.388, 64.402 65.305, 66.213 62.137, 66.922 61.032, 56.984 60.442, 51.674 " />
                <path fill="none" stroke-width="0.30000001192092896" stroke-linecap="round" stroke-opacity="1.0" stroke="rgb(255, 255, 255)" stroke-linejoin="round" d=" M 83.308, 62.181 73.550, 64.366 73.388, 64.402 72.615, 54.432 72.275, 50.048 " />
                <path fill="none" stroke-width="0.30000001192092896" stroke-linecap="round" stroke-opacity="1.0" stroke="rgb(255, 255, 255)" stroke-linejoin="round" d=" M 91.829, 47.360 92.056, 57.357 92.120, 60.207 83.308, 62.181 82.825, 52.192 82.653, 48.621 " />
                <path fill="none" stroke-width="0.30000001192092896" stroke-linecap="round" stroke-opacity="1.0" stroke="rgb(255, 255, 255)" stroke-linejoin="round" d=" M 100.234, 99.536 100.000, 99.657 99.613, 99.856 93.096, 103.220 92.712, 103.418 92.668, 103.441 90.092, 104.770 86.143, 106.808 85.482, 107.149 85.104, 107.344 81.913, 108.991 80.298, 109.824 77.264, 111.390 " />
                <path fill="none" stroke-width="0.30000001192092896" stroke-linecap="round" stroke-opacity="1.0" stroke="rgb(255, 255, 255)" stroke-linejoin="round" d=" M 100.234, 99.536 100.000, 99.657 99.613, 99.856 93.096, 103.220 92.712, 103.418 92.668, 103.441 90.092, 104.770 86.143, 106.808 85.482, 107.149 85.104, 107.344 81.913, 108.991 80.298, 109.824 77.264, 111.390 " />
                <path fill="none" stroke-width="0.30000001192092896" stroke-linecap="round" stroke-opacity="1.0" stroke="rgb(255, 255, 255)" stroke-linejoin="round" d=" M 116.559, 131.138 116.589, 130.638 116.846, 126.345 116.925, 125.031 117.138, 121.475 117.153, 121.221 " />
                <path fill="none" stroke-width="0.30000001192092896" stroke-linecap="round" stroke-opacity="1.0" stroke="rgb(255, 255, 255)" stroke-linejoin="round" d=" M 116.559, 131.138 116.589, 130.638 116.846, 126.345 116.925, 125.031 117.138, 121.475 117.153, 121.221 " />
                <path fill="none" stroke-width="0.30000001192092896" stroke-linecap="round" stroke-opacity="1.0" stroke="rgb(255, 255, 255)" stroke-linejoin="round" d=" M 77.023, 111.274 76.780, 111.720 77.071, 111.889 " />
                <path fill="none" stroke-width="0.30000001192092896" stroke-linecap="round" stroke-opacity="1.0" stroke="rgb(255, 255, 255)" stroke-linejoin="round" d=" M 77.071, 111.889 77.311, 112.006 " />
                <path fill="none" stroke-width="0.30000001192092896" stroke-linecap="round" stroke-opacity="1.0" stroke="rgb(255, 255, 255)" stroke-linejoin="round" d=" M 77.023, 111.274 76.780, 111.720 77.071, 111.889 " />
                <path fill="none" stroke-width="0.30000001192092896" stroke-linecap="round" stroke-opacity="1.0" stroke="rgb(255, 255, 255)" stroke-linejoin="round" d=" M 77.071, 111.889 77.311, 112.006 " />
                <path fill="none" stroke-width="0.30000001192092896" stroke-linecap="round" stroke-opacity="1.0" stroke="rgb(255, 255, 255)" stroke-linejoin="round" d=" M 117.153, 121.221 118.195, 120.903 119.073, 120.177 119.494, 118.834 119.334, 118.208 119.144, 117.461 118.306, 116.704 117.429, 116.338 116.986, 116.154 116.316, 116.372 115.912, 116.504 115.655, 116.587 114.766, 117.288 114.366, 118.555 114.343, 118.626 114.688, 119.998 115.602, 120.797 115.676, 120.827 115.784, 120.872 116.058, 120.987 116.394, 121.126 " />
                <path fill="none" stroke-width="0.30000001192092896" stroke-linecap="round" stroke-opacity="1.0" stroke="rgb(255, 255, 255)" stroke-linejoin="round" d=" M 116.394, 121.126 116.845, 121.315 117.153, 121.221 " />
                <path fill="none" stroke-width="0.30000001192092896" stroke-linecap="round" stroke-opacity="1.0" stroke="rgb(255, 255, 255)" stroke-linejoin="round" d=" M 100.148, 32.820 100.808, 32.813 101.535, 32.787 101.737, 32.764 100.000, 24.949 98.317, 32.774 98.441, 32.786 99.147, 32.812 99.851, 32.817 " />
                <path fill="none" stroke-width="0.30000001192092896" stroke-linecap="round" stroke-opacity="1.0" stroke="rgb(255, 255, 255)" stroke-linejoin="round" d=" M 99.851, 32.817 99.855, 42.817 99.857, 46.111 99.862, 46.115 99.872, 46.118 99.887, 46.120 99.907, 46.123 99.930, 46.125 99.956, 46.126 99.984, 46.127 100.012, 46.127 100.040, 46.126 100.066, 46.125 100.110, 46.121 100.143, 46.112 100.147, 36.112 100.148, 32.820 " />
                <path fill="none" stroke-width="0.30000001192092896" stroke-linecap="round" stroke-opacity="1.0" stroke="rgb(255, 255, 255)" stroke-linejoin="round" d=" M 45.409, 127.734 45.157, 127.306 44.488, 126.596 43.934, 126.444 37.374, 132.075 45.816, 129.940 45.954, 129.586 45.834, 128.687 45.573, 128.029 " />
                <path fill="none" stroke-width="0.30000001192092896" stroke-linecap="round" stroke-opacity="1.0" stroke="rgb(255, 255, 255)" stroke-linejoin="round" d=" M 45.573, 128.029 54.454, 123.433 56.983, 122.124 57.061, 122.084 57.070, 122.071 57.076, 122.053 57.077, 122.031 57.075, 122.007 57.048, 121.922 57.016, 121.869 56.941, 121.805 56.925, 121.802 56.910, 121.804 56.667, 121.929 47.779, 126.512 45.409, 127.734 " />
                <path fill="none" stroke-width="0.30000001192092896" stroke-linecap="round" stroke-opacity="1.0" stroke="rgb(255, 255, 255)" stroke-linejoin="round" d=" M 161.040, 122.793 160.976, 122.953 160.873, 123.296 160.718, 124.156 160.823, 124.546 169.236, 125.660 162.145, 121.029 161.824, 121.215 161.384, 121.938 161.159, 122.496 " />
                <path fill="none" stroke-width="0.30000001192092896" stroke-linecap="round" stroke-opacity="1.0" stroke="rgb(255, 255, 255)" stroke-linejoin="round" d=" M 161.159, 122.496 151.781, 119.026 148.595, 117.848 148.549, 117.876 148.536, 117.895 148.523, 117.918 148.510, 117.944 148.499, 117.971 148.476, 118.054 148.473, 118.098 148.475, 118.115 148.480, 118.126 148.487, 118.133 157.861, 121.613 161.040, 122.793 " />
                <path fill="none" stroke-width="0.30000001192092896" stroke-linecap="round" stroke-opacity="1.0" stroke="rgb(255, 255, 255)" stroke-linejoin="round" d=" M 103.174, 9.255 98.213, 8.623 98.219, 9.990 101.679, 10.397 98.030, 18.964 103.095, 19.242 103.105, 17.982 99.557, 17.754 103.174, 9.255 " />
                <path fill="none" stroke-width="0.30000001192092896" stroke-linecap="round" stroke-opacity="1.0" stroke="rgb(255, 255, 255)" stroke-linejoin="round" d=" M 103.174, 9.255 98.213, 8.623 98.219, 9.990 101.679, 10.397 98.030, 18.964 103.095, 19.242 103.105, 17.982 99.557, 17.754 103.174, 9.255 " />
                <path fill="none" stroke-width="0.30000001192092896" stroke-linecap="round" stroke-opacity="1.0" stroke="rgb(255, 255, 255)" stroke-linejoin="round" d=" M 20.935, 134.746 18.988, 135.700 24.558, 137.666 21.195, 144.401 23.066, 143.401 25.727, 138.064 30.108, 139.636 31.816, 138.723 26.391, 136.728 29.431, 130.582 27.648, 131.456 25.251, 136.337 20.935, 134.746 " />
                <path fill="none" stroke-width="0.30000001192092896" stroke-linecap="round" stroke-opacity="1.0" stroke="rgb(255, 255, 255)" stroke-linejoin="round" d=" M 20.935, 134.746 18.988, 135.700 24.558, 137.666 21.195, 144.401 23.066, 143.401 25.727, 138.064 30.108, 139.636 31.816, 138.723 26.391, 136.728 29.431, 130.582 27.648, 131.456 25.251, 136.337 20.935, 134.746 " />
                <path fill="none" stroke-width="0.30000001192092896" stroke-linecap="round" stroke-opacity="1.0" stroke="rgb(255, 255, 255)" stroke-linejoin="round" d=" M 180.648, 124.248 178.815, 123.606 181.652, 128.821 180.427, 133.004 181.933, 133.580 183.185, 129.394 188.457, 126.984 186.521, 126.305 182.704, 128.078 180.648, 124.248 " />
                <path fill="none" stroke-width="0.30000001192092896" stroke-linecap="round" stroke-opacity="1.0" stroke="rgb(255, 255, 255)" stroke-linejoin="round" d=" M 180.648, 124.248 178.815, 123.606 181.652, 128.821 180.427, 133.004 181.933, 133.580 183.185, 129.394 188.457, 126.984 186.521, 126.305 182.704, 128.078 180.648, 124.248 " />
                <path fill="none" stroke-width="0.30000001192092896" stroke-linecap="round" stroke-opacity="1.0" stroke="rgb(255, 255, 255)" stroke-linejoin="round" d=" M 66.809, 128.189 58.742, 132.879 " />
                <path fill="none" stroke-width="0.30000001192092896" stroke-linecap="round" stroke-opacity="1.0" stroke="rgb(255, 255, 255)" stroke-linejoin="round" d=" M 69.773, 50.392 69.165, 43.207 " />
                <path fill="none" stroke-width="0.30000001192092896" stroke-linecap="round" stroke-opacity="1.0" stroke="rgb(255, 255, 255)" stroke-linejoin="round" d=" M 76.306, 49.494 75.934, 43.872 " />
                <path fill="none" stroke-width="0.30000001192092896" stroke-linecap="round" stroke-opacity="1.0" stroke="rgb(255, 255, 255)" stroke-linejoin="round" d=" M 83.457, 48.511 83.276, 44.593 " />
                <path fill="none" stroke-width="0.30000001192092896" stroke-linecap="round" stroke-opacity="1.0" stroke="rgb(255, 255, 255)" stroke-linejoin="round" d=" M 77.311, 112.006 77.311, 112.006 " />
                <path fill="none" stroke-width="0.30000001192092896" stroke-linecap="round" stroke-opacity="1.0" stroke="rgb(255, 255, 255)" stroke-linejoin="round" d=" M 91.318, 47.430 91.268, 45.378 " />
                <path fill="none" stroke-width="0.30000001192092896" stroke-linecap="round" stroke-opacity="1.0" stroke="rgb(255, 255, 255)" stroke-linejoin="round" d=" M 77.901, 111.699 80.338, 110.432 82.549, 109.282 85.510, 107.742 85.738, 107.624 86.170, 107.399 90.723, 105.032 92.682, 104.013 93.109, 103.791 93.340, 103.671 100.000, 100.208 100.234, 100.087 " />
                <path fill="none" stroke-width="0.30000001192092896" stroke-linecap="round" stroke-opacity="1.0" stroke="rgb(255, 255, 255)" stroke-linejoin="round" d=" M 77.901, 111.699 80.338, 110.432 82.549, 109.282 85.510, 107.742 85.738, 107.624 86.170, 107.399 90.723, 105.032 92.682, 104.013 93.109, 103.791 93.340, 103.671 100.000, 100.208 100.234, 100.087 " />
                <path fill="none" stroke-width="0.30000001192092896" stroke-linecap="round" stroke-opacity="1.0" stroke="rgb(255, 255, 255)" stroke-linejoin="round" d=" M 107.288, 46.953 107.323, 45.230 " />
                <path fill="none" stroke-width="0.30000001192092896" stroke-linecap="round" stroke-opacity="1.0" stroke="rgb(255, 255, 255)" stroke-linejoin="round" d=" M 105.427, 125.024 112.909, 119.609 116.393, 121.146 " />
                <path fill="none" stroke-width="0.30000001192092896" stroke-linecap="round" stroke-opacity="1.0" stroke="rgb(255, 255, 255)" stroke-linejoin="round" d=" M 113.798, 47.592 113.924, 44.322 " />
                <path fill="none" stroke-width="0.30000001192092896" stroke-linecap="round" stroke-opacity="1.0" stroke="rgb(255, 255, 255)" stroke-linejoin="round" d=" M 77.311, 112.006 80.547, 113.583 85.445, 115.971 85.919, 116.202 86.591, 116.530 86.737, 116.601 93.060, 119.683 93.474, 119.885 94.662, 120.464 94.870, 120.565 100.000, 123.066 101.808, 123.947 104.859, 125.435 105.694, 125.842 107.465, 126.705 107.796, 126.866 110.705, 128.285 113.017, 129.411 115.517, 130.630 115.841, 130.788 " />
                <path fill="none" stroke-width="0.30000001192092896" stroke-linecap="round" stroke-opacity="1.0" stroke="rgb(255, 255, 255)" stroke-linejoin="round" d=" M 77.311, 112.006 77.311, 112.006 " />
                <path fill="none" stroke-width="0.30000001192092896" stroke-linecap="round" stroke-opacity="1.0" stroke="rgb(255, 255, 255)" stroke-linejoin="round" d=" M 77.311, 112.006 80.547, 113.583 85.445, 115.971 85.919, 116.202 86.591, 116.530 86.737, 116.601 93.060, 119.683 93.474, 119.885 94.662, 120.464 94.870, 120.565 100.000, 123.066 101.808, 123.947 104.859, 125.435 105.694, 125.842 107.465, 126.705 107.796, 126.866 110.705, 128.285 113.017, 129.411 115.517, 130.630 115.841, 130.788 " />
                <path fill="none" stroke-width="0.30000001192092896" stroke-linecap="round" stroke-opacity="1.0" stroke="rgb(255, 255, 255)" stroke-linejoin="round" d=" M 77.311, 112.006 77.311, 112.006 " />
                <path fill="none" stroke-width="0.30000001192092896" stroke-linecap="round" stroke-opacity="1.0" stroke="rgb(255, 255, 255)" stroke-linejoin="round" d=" M 77.901, 111.699 77.661, 111.583 77.264, 111.390 " />
                <path fill="none" stroke-width="0.30000001192092896" stroke-linecap="round" stroke-opacity="1.0" stroke="rgb(255, 255, 255)" stroke-linejoin="round" d=" M 115.881, 130.084 115.557, 129.927 113.572, 128.967 110.732, 127.591 108.360, 126.443 107.484, 126.019 105.708, 125.159 105.427, 125.024 102.380, 123.548 100.000, 122.396 95.450, 120.194 95.242, 120.093 93.459, 119.230 93.044, 119.029 87.323, 116.260 86.561, 115.891 86.032, 115.635 85.888, 115.565 80.506, 112.960 77.901, 111.699 " />
                <path fill="none" stroke-width="0.30000001192092896" stroke-linecap="round" stroke-opacity="1.0" stroke="rgb(255, 255, 255)" stroke-linejoin="round" d=" M 77.901, 111.699 77.661, 111.583 77.264, 111.390 " />
                <path fill="none" stroke-width="0.30000001192092896" stroke-linecap="round" stroke-opacity="1.0" stroke="rgb(255, 255, 255)" stroke-linejoin="round" d=" M 115.881, 130.084 115.557, 129.927 113.572, 128.967 110.732, 127.591 108.360, 126.443 107.484, 126.019 105.708, 125.159 105.427, 125.024 102.380, 123.548 100.000, 122.396 95.450, 120.194 95.242, 120.093 93.459, 119.230 93.044, 119.029 87.323, 116.260 86.561, 115.891 86.032, 115.635 85.888, 115.565 80.506, 112.960 77.901, 111.699 " />
                <path fill="none" stroke-width="0.30000001192092896" stroke-linecap="round" stroke-opacity="1.0" stroke="rgb(255, 255, 255)" stroke-linejoin="round" d=" M 115.841, 130.788 115.841, 130.788 115.841, 130.788 " />
                <path fill="none" stroke-width="0.30000001192092896" stroke-linecap="round" stroke-opacity="1.0" stroke="rgb(255, 255, 255)" stroke-linejoin="round" d=" M 116.394, 121.126 116.393, 121.146 116.189, 124.694 116.059, 126.975 115.881, 130.084 " />
                <path fill="none" stroke-width="0.30000001192092896" stroke-linecap="round" stroke-opacity="1.0" stroke="rgb(255, 255, 255)" stroke-linejoin="round" d=" M 115.841, 130.788 115.841, 130.788 115.841, 130.788 " />
                <path fill="none" stroke-width="0.30000001192092896" stroke-linecap="round" stroke-opacity="1.0" stroke="rgb(255, 255, 255)" stroke-linejoin="round" d=" M 116.394, 121.126 116.393, 121.146 116.189, 124.694 116.059, 126.975 115.881, 130.084 " />
                <path fill="none" stroke-width="0.30000001192092896" stroke-linecap="round" stroke-opacity="1.0" stroke="rgb(255, 255, 255)" stroke-linejoin="round" d=" M 119.648, 48.167 119.903, 43.500 " />
                <path fill="none" stroke-width="0.30000001192092896" stroke-linecap="round" stroke-opacity="1.0" stroke="rgb(255, 255, 255)" stroke-linejoin="round" d=" M 116.559, 131.138 125.548, 135.520 128.887, 137.148 " />
                <path fill="none" stroke-width="0.30000001192092896" stroke-linecap="round" stroke-opacity="1.0" stroke="rgb(255, 255, 255)" stroke-linejoin="round" d=" M 140.507, 125.725 146.690, 128.295 " />
                <path fill="none" stroke-width="0.30000001192092896" stroke-linecap="round" stroke-opacity="1.0" stroke="rgb(255, 255, 255)" stroke-linejoin="round" d=" M 149.486, 111.570 153.503, 112.949 " />
                <path fill="none" stroke-width="0.30000001192092896" stroke-linecap="round" stroke-opacity="1.0" stroke="rgb(255, 255, 255)" stroke-linejoin="round" d=" M 150.412, 106.029 158.057, 108.472 " />
            </g>
        </g>
    </g>
</svg>
